%
M48
M72
T28C0.0280
T32C0.0320
T40C0.0400
%
T28
X9000Y13000
X9000Y15000
T32
X6500Y13000
X7500Y13000
X7500Y15000
X6500Y15000
X8500Y17500
X8500Y18500
X10500Y18500
X10500Y17500
X11500Y17500
X11500Y16500
X11500Y15500
X11500Y14500
X11500Y13500
X11500Y12500
X11500Y11500
X11500Y10500
X11500Y9500
X14500Y9500
X14500Y10500
X14500Y11500
X14500Y12500
X14500Y13500
X14500Y14500
X14500Y15500
X14500Y16500
X14500Y17500
X14500Y18500
X14500Y19500
X14500Y20500
X14500Y21500
X14500Y22500
X11500Y22500
X11500Y21500
X11500Y20500
X11500Y19500
X11500Y18500
X10500Y22500
X8500Y22500
X15500Y15500
X15500Y14500
T40
X16500Y13500
X16500Y12500
X16500Y11500
X16500Y16000
X16500Y17000
X16500Y18000
X16500Y19500
X16500Y20500
X16500Y21500
X16500Y22500
X9500Y21500
X7500Y20000
X6500Y20000
X6500Y18500
X7500Y18500
X7500Y17000
X6500Y17000
M30
