G75*
%MOIN*%
%OFA0B0*%
%FSLAX25Y25*%
%IPPOS*%
%LPD*%
%AMOC8*
5,1,8,0,0,1.08239X$1,22.5*
%
%ADD10OC8,0.05200*%
%ADD11C,0.06000*%
%ADD12OC8,0.06000*%
%ADD13C,0.05200*%
%ADD14C,0.06500*%
%ADD15C,0.03200*%
%ADD16C,0.02400*%
D10*
X0065000Y0130000D03*
X0075000Y0130000D03*
X0075000Y0150000D03*
X0065000Y0150000D03*
X0085000Y0175000D03*
X0085000Y0185000D03*
X0105000Y0185000D03*
X0105000Y0175000D03*
X0105000Y0225000D03*
X0085000Y0225000D03*
X0155000Y0155000D03*
X0155000Y0145000D03*
D11*
X0162000Y0135000D02*
X0168000Y0135000D01*
X0168000Y0125000D02*
X0162000Y0125000D01*
X0162000Y0115000D02*
X0168000Y0115000D01*
X0168000Y0160000D02*
X0162000Y0160000D01*
X0162000Y0170000D02*
X0168000Y0170000D01*
X0168000Y0180000D02*
X0162000Y0180000D01*
X0162000Y0195000D02*
X0168000Y0195000D01*
X0168000Y0205000D02*
X0162000Y0205000D01*
X0162000Y0215000D02*
X0168000Y0215000D01*
X0168000Y0225000D02*
X0162000Y0225000D01*
X0075000Y0203000D02*
X0075000Y0197000D01*
X0075000Y0188000D02*
X0075000Y0182000D01*
X0075000Y0173000D02*
X0075000Y0167000D01*
X0065000Y0167000D02*
X0065000Y0173000D01*
X0065000Y0182000D02*
X0065000Y0188000D01*
X0065000Y0197000D02*
X0065000Y0203000D01*
D12*
X0095000Y0215000D03*
D13*
X0112400Y0215000D02*
X0117600Y0215000D01*
X0117600Y0205000D02*
X0112400Y0205000D01*
X0112400Y0195000D02*
X0117600Y0195000D01*
X0117600Y0185000D02*
X0112400Y0185000D01*
X0112400Y0175000D02*
X0117600Y0175000D01*
X0117600Y0165000D02*
X0112400Y0165000D01*
X0112400Y0155000D02*
X0117600Y0155000D01*
X0117600Y0145000D02*
X0112400Y0145000D01*
X0112400Y0135000D02*
X0117600Y0135000D01*
X0117600Y0125000D02*
X0112400Y0125000D01*
X0112400Y0115000D02*
X0117600Y0115000D01*
X0117600Y0105000D02*
X0112400Y0105000D01*
X0112400Y0095000D02*
X0117600Y0095000D01*
X0142400Y0095000D02*
X0147600Y0095000D01*
X0147600Y0105000D02*
X0142400Y0105000D01*
X0142400Y0115000D02*
X0147600Y0115000D01*
X0147600Y0125000D02*
X0142400Y0125000D01*
X0142400Y0135000D02*
X0147600Y0135000D01*
X0147600Y0145000D02*
X0142400Y0145000D01*
X0142400Y0155000D02*
X0147600Y0155000D01*
X0147600Y0165000D02*
X0142400Y0165000D01*
X0142400Y0175000D02*
X0147600Y0175000D01*
X0147600Y0185000D02*
X0142400Y0185000D01*
X0142400Y0195000D02*
X0147600Y0195000D01*
X0147600Y0205000D02*
X0142400Y0205000D01*
X0142400Y0215000D02*
X0147600Y0215000D01*
X0147600Y0225000D02*
X0142400Y0225000D01*
X0117600Y0225000D02*
X0112400Y0225000D01*
D14*
X0090000Y0150000D03*
X0090000Y0130000D03*
D15*
X0085000Y0110000D02*
X0110000Y0110000D01*
X0120000Y0110000D02*
X0140000Y0110000D01*
X0145000Y0115000D02*
X0165000Y0115000D01*
X0160000Y0110000D02*
X0150000Y0110000D01*
X0145000Y0125000D02*
X0165000Y0125000D01*
X0165000Y0135000D02*
X0145000Y0135000D01*
X0145000Y0145000D02*
X0155000Y0145000D01*
X0155000Y0155000D02*
X0160000Y0160000D01*
X0155000Y0165000D01*
X0145000Y0165000D01*
X0140000Y0165000D01*
X0130000Y0155000D01*
X0115000Y0155000D01*
X0110000Y0150000D02*
X0105000Y0155000D01*
X0105000Y0160000D01*
X0110000Y0165000D01*
X0115000Y0165000D01*
X0120000Y0165000D01*
X0125000Y0170000D01*
X0125000Y0190000D01*
X0140000Y0190000D01*
X0150000Y0190000D02*
X0165000Y0190000D01*
X0165000Y0180000D01*
X0165000Y0190000D02*
X0165000Y0195000D01*
X0165000Y0205000D02*
X0170000Y0205000D01*
X0175000Y0200000D01*
X0175000Y0160000D01*
X0175000Y0110000D01*
X0170000Y0110000D01*
X0145000Y0145000D02*
X0125000Y0145000D01*
X0120000Y0150000D01*
X0115000Y0145000D02*
X0095000Y0145000D01*
X0090000Y0150000D01*
X0075000Y0150000D01*
X0065000Y0150000D02*
X0065000Y0130000D01*
X0085000Y0110000D01*
X0090000Y0130000D02*
X0075000Y0130000D01*
X0090000Y0130000D02*
X0095000Y0135000D01*
X0115000Y0135000D01*
X0115000Y0175000D02*
X0105000Y0175000D01*
X0105000Y0185000D02*
X0115000Y0185000D01*
X0115000Y0195000D02*
X0080000Y0195000D01*
X0075000Y0200000D01*
X0065000Y0200000D02*
X0065000Y0185000D01*
X0065000Y0170000D01*
X0065000Y0150000D01*
X0075000Y0170000D02*
X0080000Y0175000D01*
X0085000Y0175000D01*
X0085000Y0185000D02*
X0075000Y0185000D01*
X0095000Y0200000D02*
X0110000Y0200000D01*
X0120000Y0200000D02*
X0125000Y0195000D01*
X0125000Y0190000D01*
X0145000Y0175000D02*
X0155000Y0175000D01*
X0160000Y0170000D01*
X0165000Y0170000D01*
X0165000Y0160000D02*
X0160000Y0160000D01*
X0165000Y0160000D02*
X0175000Y0160000D01*
X0165000Y0215000D02*
X0145000Y0215000D01*
X0145000Y0225000D02*
X0165000Y0225000D01*
X0115000Y0225000D02*
X0105000Y0225000D01*
X0095000Y0215000D01*
X0085000Y0210000D02*
X0095000Y0200000D01*
X0085000Y0210000D02*
X0085000Y0225000D01*
D16*
X0110000Y0200000D02*
X0120000Y0200000D01*
X0140000Y0190000D02*
X0150000Y0190000D01*
X0120000Y0150000D02*
X0110000Y0150000D01*
X0110000Y0110000D02*
X0120000Y0110000D01*
X0140000Y0110000D02*
X0150000Y0110000D01*
X0160000Y0110000D02*
X0170000Y0110000D01*
M02*
